
<global>
amp_veltrack=0
ampeg_release=0.35
</global>

<group>
group_label=Group_0-42
lpc_hicc1=42
lpc_locc1=0

<region>
hikey=B3
hivel=127
lokey=A#3
loop_end=157928
loop_mode=loop_continuous
loop_start=67142
loop_xfade=11000
lovel=0
lpc=8fEZQoO1+MJ/siFDyOnqwkTwnEJRFobCvuk1Qsw9qcGJ6hlBEuWawDL3GUBDosW/R6RFQKXr0MCByuxAhKQrwO3Jj8AJ0QdB0AoAwSHI3ECf/PTAMnH/QGYdqMCA68Q/
lpc_rms=-46.15
pitch_keycenter=A#3
sample=Trumpet_Trill_Half_PP_A#3.opus
</region>

<region>
hikey=B4
hivel=127
lokey=A#4
loop_end=155828
loop_mode=loop_continuous
loop_start=66249
loop_xfade=10854
lovel=0
lpc=bRB9QrEaYsOIdadDQXGIw+4/HEPuhrLCImQ9QscNOcEooqq/jwzTwFckUEHrKibBqsH0QKep6cA+HdRAu/NKwIC6b78MyFtATjJjwJGZY0CefEnBKWbFQX6mosGpRsdA
lpc_rms=-42.33
pitch_keycenter=A#4
sample=Trumpet_Trill_Half_PP_A#4.opus
</region>

<region>
hikey=B5
hivel=127
lokey=A#5
loop_end=155415
loop_mode=loop_continuous
loop_start=66073
loop_xfade=10825
lovel=0
lpc=AzVAQvd8BMPx8DBDdjEYw9Wi3EJwuaXC7L+HQhH9OMJEm79B5nigwK5TNb+MLyVAM6ARwIX9nkCa3l7AbZUtQAcF9r+ZH/BAsvINwVtlAkGBpB7BArO/Qb0d8sG2l19B
lpc_rms=-32.37
pitch_keycenter=A#5
sample=Trumpet_Trill_Half_PP_A#5.opus
</region>

<region>
hikey=C#4
hivel=127
lokey=C4
loop_end=154033
loop_mode=loop_continuous
loop_start=65486
loop_xfade=10729
lovel=0
lpc=KTJSQsb1OMP3MoRDzTtGwzNQy0KJvYDCYPolQoyiOsH6Ap4/mrPPwELk/EDgeprA6HiKQHpb2MBekQdBv8fZwCEcMEBGYJ8+nNCjv90S9z/f5ofAKf/YQLQrs8DOZPE/
lpc_rms=-45.56
sample=Trumpet_Trill_Half_PP_C4.opus
</region>

<region>
hikey=C#5
hivel=127
lokey=C5
loop_end=156236
loop_mode=loop_continuous
loop_start=66422
loop_xfade=10883
lovel=0
lpc=ndCAQlTNY8MpuKhDR9uLw/2wKENjo9DCpTuBQjJKDcJWl8FBSqbKwSkEBkIkfxTC5sTVQU36VsHLkRxBcvIQwczTwkDPkUC+HAEvwb/UpUE2CNbBHhEJQmfW7sG21zBB
lpc_rms=-41.15
pitch_keycenter=C5
sample=Trumpet_Trill_Half_PP_C5.opus
</region>

<region>
hikey=F6
hivel=127
lokey=C6
loop_end=156385
loop_mode=loop_continuous
loop_start=66486
loop_xfade=10893
lovel=0
lpc=XwcuQsNH3MK+oAdDYA/Wwg4hkELr5CfCod66QW4pO8F7lF1BaI92wSL2ZkH+KprADrS0P1XJlr/MMr1ARIQrwBu5m7/GHa5AF4yiPgcZncCGmGZB2unuwapC4EE8AwrB
lpc_rms=-32.17
pitch_keycenter=C6
sample=Trumpet_Trill_Half_PP_C6.opus
</region>

<region>
hikey=D#4
hivel=127
lokey=D4
loop_end=154367
loop_mode=loop_continuous
loop_start=65628
loop_xfade=10752
lovel=0
lpc=cPJ1QgdFTsMFU4ZDuEcpw32qgUIz6ArC+EW7QZoTQcERKQxBxnn5wHX0Z0A7jUw+a75Wvy5Kqz5Zp3lAGxmmwMi/+zzJdRhAwogUwJbEqT/T2i3AJygnQYMfP8HhiYpA
lpc_rms=-46.85
pitch_keycenter=D4
sample=Trumpet_Trill_Half_PP_D4.opus
</region>

<region>
hikey=D#5
hivel=127
lokey=D5
loop_end=152839
loop_mode=loop_continuous
loop_start=64978
loop_xfade=10646
lovel=0
lpc=nDGVQhCFccPFwKBDiOhlw7314kJyBWDCvlrKQXe8R8BCbADBrECYQPNgEUGNynPB2MVfQdBMeMG8A4VB4bkNwUL1pD9zaCW/5V8yvxVl8kD/EITB1JzoQSxw9MF+L1dB
lpc_rms=-42.16
pitch_keycenter=D5
sample=Trumpet_Trill_Half_PP_D5.opus
</region>

<region>
hikey=F4
hivel=127
lokey=E4
loop_end=154654
loop_mode=loop_continuous
loop_start=65749
loop_xfade=10772
lovel=0
lpc=WEpxQpe9VMNzxpVDDh9Uw58WwEKJGWjCRocMQrToRsCvbry/1jUlwWZ+IUG+lWrAbeLmP1cTVcDS+OFA2wfEwMdeAMBO8e5A3reowK1+KUANL/3Apfh1QTMTSsGJpXtA
lpc_rms=-44.59
pitch_keycenter=E4
sample=Trumpet_Trill_Half_PP_E4.opus
</region>

<region>
hikey=F5
hivel=127
lokey=E5
loop_end=149810
loop_mode=loop_continuous
loop_start=63690
loop_xfade=10435
lovel=0
lpc=uNrEQn4AmsOPqstDS2SYwzcuLEOmhbLC5XIHQlADacE0fnhBuwzDwLXU3j28+TI/PdoMQJsZKcF39YRBfiN6wdq5XkHejbe9uaBLwbeBEkGUlwXBqBqmQWCNpcGxNA9B
lpc_rms=-38.81
pitch_keycenter=E5
sample=Trumpet_Trill_Half_PP_E5.opus
</region>

<region>
hikey=G3
hivel=127
lokey=F#3
loop_end=157682
loop_mode=loop_continuous
loop_start=67037
loop_xfade=10983
lovel=0
lpc=gk4yQpAZ+8LC3QFDgNGNwhe/MUK/RPzBf9I0Qb5nU8Ar/QhAO2R3wOJ7j0DQt+C/vgkMQGRvg8DgeZtAshqHwEuzij/cVQpA+NhOwFB4QkASNIzA4hXfQHpux8D9Qw1A
lpc_rms=-51.67
pitch_keycenter=F#3
sample=Trumpet_Trill_Half_PP_F#3.opus
</region>

<region>
hikey=G4
hivel=127
lokey=F#4
loop_end=155146
loop_mode=loop_continuous
loop_start=65959
loop_xfade=10807
lovel=0
lpc=S92KQoOzesN7TbZDdnmGw97A8EIe33zCTxchQlQqmcCMcCTBOsqcv1T7DUFLEhbAHqA0wG0qYL9OjORAi3UMwaoOi0D1VxA/4wRzvwuAiz+CWaPARL8LQSF32MCzGwhA
lpc_rms=-43.66
pitch_keycenter=F#4
sample=Trumpet_Trill_Half_PP_F#4.opus
</region>

<region>
hikey=G5
hivel=127
lokey=F#5
loop_end=154030
loop_mode=loop_continuous
loop_start=65484
loop_xfade=10729
lovel=0
lpc=9NKeQlIfZcPwxoxDEOhKw3FUAkPsPK3ChXkPQi0Q1MC/N+hA4YcHP4+dk8Dtu8/AE21pQXAEZ8EsuatBvQ3DwaQ7bkE7nsTA/5cuQaliE8FJX6xAsvRuwcr8tEE6nRjB
lpc_rms=-37.47
pitch_keycenter=F#5
sample=Trumpet_Trill_Half_PP_F#5.opus
</region>

<region>
hikey=A3
hivel=127
lokey=G#3
loop_end=157928
loop_mode=loop_continuous
loop_start=67142
loop_xfade=11000
lovel=0
lpc=CftMQqTHHsMZYDVDJ8rAwkwnPkLAHCLCIedhQQHDDL+lctRABJTfwEiIu0DNEzvA80+evxNKfL8FXVVAv5djv+/7pL+0Q7A/mDOAv9Nmoz8Ik5vA+TQSQS306MCRfAxA
lpc_rms=-49.79
pitch_keycenter=G#3
sample=Trumpet_Trill_Half_PP_G#3.opus
</region>

<region>
hikey=A4
hivel=127
lokey=G#4
loop_end=155071
loop_mode=loop_continuous
loop_start=65927
loop_xfade=10801
lovel=0
lpc=fdSNQjH8d8N8oaxDuJFyw+LC3EIcz4PC9zclQjUDH8F0XZpAfOOHwUZMk0HUsgTBwTiTv+UkGj8TLw9B9gwYwR50jr/yWN9AxunewOr6z0BuoRLBBpWAQXwodcGic7RA
lpc_rms=-43.77
pitch_keycenter=G#4
sample=Trumpet_Trill_Half_PP_G#4.opus
</region>

<region>
hikey=A5
hivel=127
lokey=G#5
loop_end=146651
loop_mode=loop_continuous
loop_start=62347
loop_xfade=10215
lovel=0
lpc=wQ4UQl9Yw8IIr+VC+2CdwuKmIkIKNaDBVooZQb38d8Dgr6NAMFUQwYPBG0FIE5/AEN01QOTJpcC7YRtBCKscwRFo0EB0fjbAV+ChP0PqGkBF79bAO9nRQKCzpj/h53/A
lpc_rms=-40.50
pitch_keycenter=G#5
sample=Trumpet_Trill_Half_PP_G#5.opus
</region>
</group>

<group>
group_label=Group_43-86
lpc_hicc1=86
lpc_locc1=43

<region>
hikey=B3
hivel=127
lokey=A#3
loop_end=155950
loop_mode=loop_continuous
loop_start=66301
loop_xfade=10863
lovel=0
lpc=2dseQg77EsPorG1DPAxiw7dSIEPhZt/CKw6WQiAsGcKaMYNBB9oVwQxF30DWLfXAPZX0QNOhTMCTIHQ/wjhKwIbe1T/dqGNA0oNMwNsVkL8s6kc/jZ8gQC3pLsC9K2E/
lpc_rms=-40.90
pitch_keycenter=A#3
sample=Trumpet_Trill_Half_MF_A#3.opus
</region>

<region>
hikey=B4
hivel=127
lokey=A#4
loop_end=156172
loop_mode=loop_continuous
loop_start=66395
loop_xfade=10878
lovel=0
lpc=l8LpQSdm4MJp509D6P1/w7KWdkP2JErD5moQQ01ZtMJPcU9ChH/zwYwSpkFSnInBtrlkQUhLG8EvP9dA2crEwNo8kkCcuA2+NdpzwOLehUDwR+2/WyOtvNPgsD7nW1u9
lpc_rms=-34.96
pitch_keycenter=A#4
sample=Trumpet_Trill_Half_MF_A#4.opus
</region>

<region>
hikey=B5
hivel=127
lokey=A#5
loop_end=156626
loop_mode=loop_continuous
loop_start=66588
loop_xfade=10910
lovel=0
lpc=K/35QRyTrcLCsAVDbw8Sw4tSCENepuHCKR+yQn9ig8K890NCGEQEwv7CuUEwDGTBwY8tQbXYwsDZbag/VHf2QDLdQ8HKvYdBZc6bwR8Dy0Gb1tzB0XXhQcX8ocGB+dJA
lpc_rms=-27.73
pitch_keycenter=A#5
sample=Trumpet_Trill_Half_MF_A#5.opus
</region>

<region>
hikey=C#4
hivel=127
lokey=C4
loop_end=156027
loop_mode=loop_continuous
loop_start=66333
loop_xfade=10868
lovel=0
lpc=tmg2QnAuLMMHx41DnveGw2flMEMrNszC5Nx2Qmq5CMLe2XdBBMu6wGRB7z97dB/A3sqSQO1PWsDhF8A/5/ZKwI9pmECyqynAzT6xPgAYXT5kbN2/MXptQAlfU8BWqZc/
lpc_rms=-38.48
sample=Trumpet_Trill_Half_MF_C4.opus
</region>

<region>
hikey=C#5
hivel=127
lokey=C5
loop_end=156782
loop_mode=loop_continuous
loop_start=66654
loop_xfade=10921
lovel=0
lpc=3moVQqiWEcOpeYZDXzGhw+bQlEM+uWrDsmwjQ+4A0cJijotCLCo3wkRdqEH28Y/Amnb/PlXJVECS7z7BwwyfQWqqv8GcEL5Bt+uWwbwWTUHSTy/BHqhRQYQcM8FodoNA
lpc_rms=-33.58
pitch_keycenter=C5
sample=Trumpet_Trill_Half_MF_C5.opus
</region>

<region>
hikey=F6
hivel=127
lokey=C6
loop_end=150485
loop_mode=loop_continuous
loop_start=63977
loop_xfade=10482
lovel=0
lpc=D+0FQk9yn8JuZ8lCufCtwjb9gkJNoDTCzogSQpK36cHgQuVBMFXKwTq10UEnirLBP8upQZ1Pe8EjFHZBbiNFwY2DVUF04QnBurP/QKTK48BaHmdBPcuOwcZn6UAE+yJA
lpc_rms=-29.34
pitch_keycenter=C6
sample=Trumpet_Trill_Half_MF_C6.opus
</region>

<region>
hikey=D#4
hivel=127
lokey=D4
loop_end=157239
loop_mode=loop_continuous
loop_start=66849
loop_xfade=10952
lovel=0
lpc=uTwaQuqkFsNxkYZD29mTw8gkakOjYBbDD0SnQkK9MMJD+f1BxZUJwvW8GEJ3/RDCV7TfQenxlsG/6IRBtWaLwctzOEE4bd0+9xkfwblMYEHKmWXBY38yQRvjssDXMrM/
lpc_rms=-37.72
pitch_keycenter=D4
sample=Trumpet_Trill_Half_MF_D4.opus
</region>

<region>
hikey=D#5
hivel=127
lokey=D5
loop_end=154531
loop_mode=loop_continuous
loop_start=65697
loop_xfade=10764
lovel=0
lpc=srQjQkxTD8PYtWFDnPpWwx5XF0PioLvCZj5SQslzssGGJJhAYX6yv6XhQEFDgLnBgcayQaDIYcFi8BBBEAOowHMtY8BoGpNBToDjwdoW2kEiRsDBemjOQRnUqcFiuwNB
lpc_rms=-34.75
pitch_keycenter=D5
sample=Trumpet_Trill_Half_MF_D5.opus
</region>

<region>
hikey=F4
hivel=127
lokey=E4
loop_end=155393
loop_mode=loop_continuous
loop_start=66064
loop_xfade=10824
lovel=0
lpc=uEMtQqdYKcPEtJVDwlSgw12+dUO95hvD8kKzQoN7TsJ+6hxCWIITwntFBULGL+LBxeyPQQxZO8APtZ6/cwjTwH7jxEDE4KtADo8+wV2PN0EbWB/BSufQQD4CCcAoo30+
lpc_rms=-36.97
pitch_keycenter=E4
sample=Trumpet_Trill_Half_MF_E4.opus
</region>

<region>
hikey=F5
hivel=127
lokey=E5
loop_end=156765
loop_mode=loop_continuous
loop_start=66647
loop_xfade=10919
lovel=0
lpc=vq01QkNnEMN5O09DmSszw2l87kIdHZXCR6EoQpCrnsHGAEdBY5shwZDzHEH1nTHBPTc7QX727MCpzrpA6VsYwY/0VkFkzhnB79IDv26PZUH0RtHB4oQCQnYIzsHnvCZB
lpc_rms=-32.75
pitch_keycenter=E5
sample=Trumpet_Trill_Half_MF_E5.opus
</region>

<region>
hikey=G3
hivel=127
lokey=F#3
loop_end=156707
loop_mode=loop_continuous
loop_start=66623
loop_xfade=10915
lovel=0
lpc=1n0zQjUzJcOuDINDdKJxw1LvJkObqO7C6CmtQsQNQ8L9m7ZBelxhwV5RBUHU+5m/tbzsvw47C7/l0LxAcNEXwTrL50CumtK/ENdJwHXlzkCX7gHBPUXfQJciacCLE1M/
lpc_rms=-41.83
pitch_keycenter=F#3
sample=Trumpet_Trill_Half_MF_F#3.opus
</region>

<region>
hikey=G4
hivel=127
lokey=F#4
loop_end=155754
loop_mode=loop_continuous
loop_start=66217
loop_xfade=10849
lovel=0
lpc=QiAtQmhjL8Nl5KRDbJ/Bw0iGpEOnA1zD21ruQje4cMIsdjFCoV8kwjIu80HyOoXBtC9+QI8lpkBni/S+YQCAweiVykH0kY/BFipIQEqdCkERrEfBMDERQS/zccCwAUo/
lpc_rms=-35.22
pitch_keycenter=F#4
sample=Trumpet_Trill_Half_MF_F#4.opus
</region>

<region>
hikey=G5
hivel=127
lokey=F#5
loop_end=155154
loop_mode=loop_continuous
loop_start=65962
loop_xfade=10807
lovel=0
lpc=o5kwQqPtCsOAsWFD9hN1w9TXVUNb4CPDWevnQtn4jsLyZypCMQTdwfpxskG/T2HB3/TrQKZEgT41v23A+7zMQM1azMBnRClBcTBDwSP3WUEbemLBGBmbQdO/kcEVLCRB
lpc_rms=-28.59
pitch_keycenter=F#5
sample=Trumpet_Trill_Half_MF_F#5.opus
</region>

<region>
hikey=A3
hivel=127
lokey=G#3
loop_end=153928
loop_mode=loop_continuous
loop_start=65441
loop_xfade=10722
lovel=0
lpc=gD0oQqArGsPMkXND0shfwwblGkNXkdvC5qaYQvD/JMKhGJ9Bv0pEwY4XtECD1ew/zo6SwPwW+D/KdBZANFaPwC4qVUB0ftW/sWysPzVoh7/iC8O9DOekP4V1wb8cMDI/
lpc_rms=-40.61
pitch_keycenter=G#3
sample=Trumpet_Trill_Half_MF_G#3.opus
</region>

<region>
hikey=A4
hivel=127
lokey=G#4
loop_end=153271
loop_mode=loop_continuous
loop_start=65162
loop_xfade=10676
lovel=0
lpc=scclQksmIsNZw5BD7fafw/XogkNaczPDT+XOQkQ4RcJKvtJBk+alwZ/KkUHpr4TBXW9IQYMLm8DHcsQ+acYKwFunokCF543AQH2cPxoVCkDikZbAR9/JQOs9qMBVxAJA
lpc_rms=-36.35
pitch_keycenter=G#4
sample=Trumpet_Trill_Half_MF_G#4.opus
</region>

<region>
hikey=A5
hivel=127
lokey=G#5
loop_end=149216
loop_mode=loop_continuous
loop_start=63438
loop_xfade=10393
lovel=0
lpc=kr7GQXj6hcJ9k7dCitahwjPaZkLlqBLCFmW+QbTHd8Gdn1JBE3IbwTAZ4EBFBE7AEesRQAUOfr9ewUVAnuCDwMLslkCqZBzAZOYhQJvIn7/BKfg/AUxNwIPUuEA8wxfA
lpc_rms=-33.42
pitch_keycenter=G#5
sample=Trumpet_Trill_Half_MF_G#5.opus
</region>
</group>

<group>
group_label=Group_87-127
lpc_hicc1=127
lpc_locc1=87

<region>
hikey=B3
hivel=127
lokey=A#3
loop_end=154237
loop_mode=loop_continuous
loop_start=65572
loop_xfade=10743
lovel=0
lpc=hvYPQlOeAsPz6k9DRY1Ew5d/DEPZOsXCoyKIQoyJFcJTn2FBpXOVwKbL/EAREG/Brr6EQW2pSsFD5xlBBOgbwZ6zAEFKvsO/pfBzwPfUWkBJwV6/jzWwvXU4NjyajTc9
lpc_rms=-39.28
pitch_keycenter=A#3
sample=Trumpet_Trill_Half_FF_A#3.opus
</region>

<region>
hikey=B4
hivel=127
lokey=A#4
loop_end=156338
loop_mode=loop_continuous
loop_start=66465
loop_xfade=10890
lovel=0
lpc=TZm/QaqfscJpGh5D+HA4w/0cJUM7gfPCInaPQk+q28FxXnC/i5A/QddyGMGmTUO/AMY3QZBpesF+bGVBQQ9CwR2REUHzHYDA8CRiPjRPiD5iJic/6tNLv+z4vT7vLjm8
lpc_rms=-32.27
pitch_keycenter=A#4
sample=Trumpet_Trill_Half_FF_A#4.opus
</region>

<region>
hikey=B5
hivel=127
lokey=A#5
loop_end=156429
loop_mode=loop_continuous
loop_start=66504
loop_xfade=10896
lovel=0
lpc=1o64QQmQYsJ6YJ9CEE+ewuW+iELvn03CaeEZQjB33cH6arpBgWiYwQNQmUFixYzB9ZSLQee6T8Fg1RlBrpKKwKI3IEBMssY/ajqOwFrpI0FTj1DB7h+AQQJZOsERyENA
lpc_rms=-28.48
pitch_keycenter=A#5
sample=Trumpet_Trill_Half_FF_A#5.opus
</region>

<region>
hikey=C#4
hivel=127
lokey=C4
loop_end=155583
loop_mode=loop_continuous
loop_start=66144
loop_xfade=10837
lovel=0
lpc=gpbJQbIeu8IWMiVDdNg/w+XHLkORHgrDCA/CQrxScsKCVw1CPWmswXsugUFyjnvB5qd/QXzOT8FbLAhBIxPgwGha7UDMhrzAc05dQPxOL8DGdyVA5o/Dv74Yij7Zxws+
lpc_rms=-36.59
sample=Trumpet_Trill_Half_FF_C4.opus
</region>

<region>
hikey=C#5
hivel=127
lokey=C5
loop_end=154843
loop_mode=loop_continuous
loop_start=65830
loop_xfade=10785
lovel=0
lpc=IrTeQU/Vz8JzKzpDBxBaww5QQkMs8w7Dhbm0QmB7TMJX8t9BscxDwZAOyD5Lny5ALLD1P/WNnMA7kWBAsaBrv00+0b/QKV9A720VwIxytb1eLG++8jdHQPPefMAc+Nk/
lpc_rms=-31.08
pitch_keycenter=C5
sample=Trumpet_Trill_Half_FF_C5.opus
</region>

<region>
hikey=F6
hivel=127
lokey=C6
loop_end=152880
loop_mode=loop_continuous
loop_start=64995
loop_xfade=10649
lovel=0
lpc=BvrWQSaBccInz5NC2s55wgTjRkLXdQ3CHfvYQXGZkME8GI1BchFhwbBCR0FcVa3Ag7Z6QIxrhL9PVK1AkXLpwMv9RUEnASPBRVEdQfxh1MBg5DpB+XSBwdAgF0EH6BE+
lpc_rms=-27.73
pitch_keycenter=C6
sample=Trumpet_Trill_Half_FF_C6.opus
</region>

<region>
hikey=D#4
hivel=127
lokey=D4
loop_end=155717
loop_mode=loop_continuous
loop_start=66202
loop_xfade=10846
lovel=0
lpc=hUizQWEpp8J/1BdD9GY4w4G+MEOtvhHDjHPXQnFNl8JGpl5CqS8vwrIgDUJNsuHBnoSwQWFehsGRel1BafBLwZuEMkEjc+/AiT1KQMtHNj8i4GfAwoqJQCJyLMBV/10/
lpc_rms=-34.06
pitch_keycenter=D4
sample=Trumpet_Trill_Half_FF_D4.opus
</region>

<region>
hikey=D#5
hivel=127
lokey=D5
loop_end=155177
loop_mode=loop_continuous
loop_start=65972
loop_xfade=10809
lovel=0
lpc=K9O5QfTyocJBoQZDf6YQw/SU7EIJIqDCst80QkQXpMHTtgtBtYXHwAW1A0E8xRrBKVYXQZzgDcErgAtBGYO3wIr/1r+GQEhB4NutwYvTxEEiAa/BR2eNQQBiNMEIL35A
lpc_rms=-30.27
pitch_keycenter=D5
sample=Trumpet_Trill_Half_FF_D5.opus
</region>

<region>
hikey=F4
hivel=127
lokey=E4
loop_end=155136
loop_mode=loop_continuous
loop_start=65955
loop_xfade=10806
lovel=0
lpc=ZVG0QX0CqcIN+BpD04g+wyBYOEMt1xbDfiTUQiXuh8L9gUFC6v4kwnxgEELEGuzB+lSuQU91VcGj1A1BxTkgwcLQKUEKrsjAm0PLvXQyuUDqXA7Bk+XxQDuZZMDT808/
lpc_rms=-33.64
pitch_keycenter=E4
sample=Trumpet_Trill_Half_FF_E4.opus
</region>

<region>
hikey=F5
hivel=127
lokey=E5
loop_end=156413
loop_mode=loop_continuous
loop_start=66497
loop_xfade=10895
lovel=0
lpc=10EUQidM7sJ/ETJDP3kiw1Tf3kI794zCL4owQsA4zMEGpINBAyIZwdqEJEDR2BFAJE+zvwIMlr//bopAp92hwJe3SkCA/3BAFsZQweP6ukEKcwTCuA8cQqmn7cHVczZB
lpc_rms=-29.01
pitch_keycenter=E5
sample=Trumpet_Trill_Half_FF_E5.opus
</region>

<region>
hikey=G3
hivel=127
lokey=F#3
loop_end=154505
loop_mode=loop_continuous
loop_start=65686
loop_xfade=10762
lovel=0
lpc=QEveQTX20cKWujxDW0Zfw+QaUEPlFSjDVKDsQvNvjcJfaBJCh+aKwVwyE0FNsRHBGZtaQV08ksFITKtBbKK4wVVtrEGBS4DBbg8aQQBHnMD4k+w/FAQgv8FoGj+Wrr++
lpc_rms=-37.23
pitch_keycenter=F#3
sample=Trumpet_Trill_Half_FF_F#3.opus
</region>

<region>
hikey=G4
hivel=127
lokey=F#4
loop_end=155653
loop_mode=loop_continuous
loop_start=66174
loop_xfade=10842
lovel=0
lpc=B6jwQYF/6cKGsldD8h+Bw4fzaUO6/i3DHl3aQpW6d8KpRxxCP0zrwed9vUG5waPBi9+QQbk9acEHBE5BJYFrwQYTgUHuEEzBfnrBQHpa7T4VhoTAGbmTQGKBOcALN2U/
lpc_rms=-33.21
pitch_keycenter=F#4
sample=Trumpet_Trill_Half_FF_F#4.opus
</region>

<region>
hikey=G5
hivel=127
lokey=F#5
loop_end=155331
loop_mode=loop_continuous
loop_start=66037
loop_xfade=10820
lovel=0
lpc=zI7MQZU0kMJCZtxC8M/twget3UJtOrzCqracQiMKfMLwYkxCr/UWwnKJ1EGWuoPBnyczQbQkpcB2/uk/GXtuP79aFcDgPfRAysw7wfjoi0EBAKzBP4bFQSGEmsFlXBZB
lpc_rms=-27.12
pitch_keycenter=F#5
sample=Trumpet_Trill_Half_FF_F#5.opus
</region>

<region>
hikey=A3
hivel=127
lokey=G#3
loop_end=155783
loop_mode=loop_continuous
loop_start=66230
loop_xfade=10851
lovel=0
lpc=JR/lQUuw1MJXajZDn5FFw373IUMR7eLCQUmKQhg/CcLtm11BjprrwPYADkFmDDjB/s40QaszBcFjIb1AcRXBwMv3sUCPBYK/ZR6hwBxfBUEuEQPBUjiyQGkbGsAX0w0/
lpc_rms=-37.61
pitch_keycenter=G#3
sample=Trumpet_Trill_Half_FF_G#3.opus
</region>

<region>
hikey=A4
hivel=127
lokey=G#4
loop_end=155151
loop_mode=loop_continuous
loop_start=65961
loop_xfade=10807
lovel=0
lpc=FhK4QbN6qsLv2RdDKlAzw+2mJ0OXywfDEDS/QhkSasLBVgtC/p+5wZJvj0Hpl4bBITyFQRjKVsF8eBtBZLEJwazC20DaszrAPMoeP3xjEL9vUK8+k7nzPvJoSL+HHQA/
lpc_rms=-33.47
pitch_keycenter=G#4
sample=Trumpet_Trill_Half_FF_G#4.opus
</region>

<region>
hikey=A5
hivel=127
lokey=G#5
loop_end=156919
loop_mode=loop_continuous
loop_start=66713
loop_xfade=10930
lovel=0
lpc=F7fOQcrLhcIHdbpCS82uwkf7jkLJwlTCpuYPQraRk8FpcDJBGcYEwQUMEUHilM/AZLK+QHARPcCCGZA/G7J5QJtApsCMcp5ASo6fv29yFEDwuMy/lJJbvXQilUCxjea/
lpc_rms=-29.00
pitch_keycenter=G#5
sample=Trumpet_Trill_Half_FF_G#5.opus
</region>
</group>